<svg width="34" height="34" viewBox="0 0 34 34" fill="none" xmlns="http://www.w3.org/2000/svg">
<circle opacity="0.2" cx="16.7645" cy="16.5882" r="16.5882" fill="white"/>
<path d="M20.0322 10.7823H14.3265C12.4695 10.7823 10.9587 12.2931 10.9587 14.1501V19.8559C10.9587 21.7128 12.4695 23.2235 14.3265 23.2235H20.0323C21.8892 23.2235 23.3999 21.7128 23.3999 19.8559V14.1501C23.3999 12.2931 21.8892 10.7823 20.0322 10.7823V10.7823ZM22.6706 19.8559C22.6706 21.3106 21.487 22.4942 20.0322 22.4942H14.3265C12.8716 22.4942 11.6881 21.3106 11.6881 19.8559V14.1501C11.6881 12.6952 12.8716 11.5117 14.3265 11.5117H20.0323C21.487 11.5117 22.6706 12.6952 22.6706 14.1501V19.8559Z" fill="white"/>
<path d="M17.179 13.601C15.3032 13.601 13.7772 15.127 13.7772 17.0027C13.7772 18.8785 15.3032 20.4045 17.179 20.4045C19.0548 20.4045 20.5808 18.8785 20.5808 17.0027C20.5808 15.127 19.0548 13.601 17.179 13.601ZM17.179 19.6752C15.7055 19.6752 14.5066 18.4764 14.5066 17.0027C14.5066 15.5292 15.7055 14.3303 17.179 14.3303C18.6526 14.3303 19.8514 15.5292 19.8514 17.0027C19.8514 18.4764 18.6526 19.6752 17.179 19.6752Z" fill="white"/>
<path d="M20.6624 12.3928C20.1081 12.3928 19.6572 12.8438 19.6572 13.398C19.6572 13.9523 20.1081 14.4033 20.6624 14.4033C21.2167 14.4033 21.6677 13.9523 21.6677 13.398C21.6677 12.8437 21.2167 12.3928 20.6624 12.3928ZM20.6624 13.6738C20.5104 13.6738 20.3866 13.5501 20.3866 13.398C20.3866 13.2459 20.5104 13.1222 20.6624 13.1222C20.8146 13.1222 20.9383 13.2459 20.9383 13.398C20.9383 13.5501 20.8146 13.6738 20.6624 13.6738Z" fill="white"/>
</svg>
