<svg width="88" height="21" viewBox="0 0 88 21" fill="none" xmlns="http://www.w3.org/2000/svg">
<path d="M0.6864 20H5.3376V0.905599H0.6864V20ZM7.67468 4.632H12.7339V20H17.3851V4.632H22.4443V0.905599H7.67468V4.632ZM43.5738 10.3984C43.5738 4.6592 39.249 0.633599 33.809 0.633599C28.3962 0.633599 23.9898 4.6592 23.9898 10.3984C23.9898 16.1376 28.3962 20.1904 33.809 20.1904C39.2218 20.1904 43.5738 16.1376 43.5738 10.3984ZM28.7498 10.3984C28.7498 6.9984 30.7082 4.8496 33.809 4.8496C36.8554 4.8496 38.841 6.9984 38.841 10.3984C38.841 13.744 36.8554 15.9472 33.809 15.9472C30.7082 15.9472 28.7498 13.744 28.7498 10.3984ZM62.4519 14.1792C62.4519 15.5392 61.5543 16.2464 60.0039 16.2464H56.5767V12.0304H59.9495C61.4999 12.0304 62.4519 12.8192 62.4519 14.1792ZM61.9895 6.6448C61.9895 7.9504 61.1463 8.6304 59.6231 8.6304H56.5767V4.632H59.6231C61.1463 4.632 61.9895 5.3392 61.9895 6.6448ZM67.1575 14.8048C67.1575 12.6288 65.7159 10.6704 63.4855 10.208C65.3351 9.664 66.7223 8.168 66.7223 5.856C66.7223 2.8368 64.4103 0.905599 60.5207 0.905599H51.9255V20H60.8199C64.8455 20 67.1575 17.96 67.1575 14.8048ZM77.0087 0.905599H69.8551V20H77.0087C83.1015 20 87.0183 16.1104 87.0183 10.4528C87.0183 4.768 83.1015 0.905599 77.0087 0.905599ZM74.5063 15.9744V4.8768H76.7095C80.2183 4.8768 82.2855 6.944 82.2855 10.4528C82.2855 13.9616 80.2183 15.9744 76.7095 15.9744H74.5063Z" fill="white"/>
</svg>
