<svg width="34" height="34" viewBox="0 0 34 34" fill="none" xmlns="http://www.w3.org/2000/svg">
<circle opacity="0.2" cx="16.9408" cy="16.5882" r="16.5882" fill="white"/>
<path d="M22.0575 13.7946L21.8724 13.926L21.8833 14.1527C22.0576 17.7726 19.2882 21.3056 15.0475 21.3056C14.2544 21.3056 13.496 21.1727 12.7907 20.9264C13.6745 20.7577 14.4849 20.3798 15.1629 19.8495L16.0785 19.1336L14.9166 19.1082C14.2148 19.0929 13.5939 18.7362 13.2117 18.1979C13.4076 18.1859 13.6006 18.1561 13.7855 18.1053L13.759 17.2991C12.987 17.1411 12.361 16.5633 12.1364 15.8122C12.343 15.8648 12.5583 15.8957 12.7769 15.8998L14.1914 15.9266L13.0152 15.1404C12.4466 14.7603 12.0662 14.1043 12.0662 13.3655C12.0662 13.1863 12.0887 13.0125 12.131 12.8457C13.4406 14.1937 15.2364 15.0607 17.2381 15.1586L17.7836 15.1853L17.6628 14.6526C17.6292 14.5047 17.614 14.3421 17.614 14.1628C17.614 12.9858 18.5663 12.0265 19.7481 12.0265C20.3574 12.0265 20.9163 12.2846 21.3088 12.7028L21.4666 12.8708L21.6926 12.8256C21.8206 12.8 21.9471 12.7702 22.0719 12.7363C22.0147 12.7786 21.9552 12.8182 21.8937 12.855L22.1585 13.6224C22.2092 13.616 22.2598 13.6089 22.3101 13.6012C22.2284 13.6685 22.1442 13.733 22.0575 13.7946Z" stroke="white" stroke-width="0.829412"/>
</svg>
