<svg width="34" height="34" viewBox="0 0 34 34" fill="none" xmlns="http://www.w3.org/2000/svg">
<circle opacity="0.2" cx="16.5882" cy="16.5882" r="16.5882" fill="white"/>
<path d="M23.686 12.6499C23.605 12.3263 23.4401 12.0299 23.2078 11.7905C22.9756 11.551 22.6843 11.3772 22.3633 11.2863C21.1907 11 16.5 11 16.5 11C16.5 11 11.8093 11 10.6367 11.3136C10.3157 11.4044 10.0244 11.5783 9.79218 11.8177C9.55994 12.0572 9.395 12.3536 9.31401 12.6772C9.09939 13.8673 8.99441 15.0745 9.00039 16.2838C8.99274 17.5022 9.09773 18.7187 9.31401 19.9177C9.4033 20.2312 9.57193 20.5164 9.80363 20.7457C10.0353 20.975 10.3222 21.1407 10.6367 21.2267C11.8093 21.5404 16.5 21.5404 16.5 21.5404C16.5 21.5404 21.1907 21.5404 22.3633 21.2267C22.6843 21.1359 22.9756 20.962 23.2078 20.7226C23.4401 20.4832 23.605 20.1867 23.686 19.8632C23.899 18.682 24.0039 17.484 23.9996 16.2838C24.0073 15.0654 23.9023 13.849 23.686 12.6499V12.6499Z" stroke="white" stroke-linecap="round" stroke-linejoin="round"/>
<path d="M14.9659 18.5132L18.8862 16.2838L14.9659 14.0543V18.5132Z" stroke="white" stroke-linecap="round" stroke-linejoin="round"/>
</svg>
